<?xml version="1.0" encoding="UTF-8" standalone="no"?>
<!DOCTYPE svg PUBLIC "-//W3C//DTD SVG 1.1//EN" "http://www.w3.org/Graphics/SVG/1.1/DTD/svg11.dtd">
<svg width="100%" height="100%" viewBox="0 0 512 512" version="1.1" xmlns="http://www.w3.org/2000/svg" xmlns:xlink="http://www.w3.org/1999/xlink" xml:space="preserve" xmlns:serif="http://www.serif.com/" style="fill-rule:evenodd;clip-rule:evenodd;stroke-linejoin:round;stroke-miterlimit:2;">
    <path d="M473.655,88.275L38.345,88.275C17.167,88.275 0,105.442 0,126.62L0,385.38C0,406.557 17.167,423.725 38.345,423.725L473.655,423.725C494.832,423.725 512,406.558 512,385.38L512,126.62C512,105.442 494.833,88.275 473.655,88.275Z" style="fill:rgb(65,71,155);fill-rule:nonzero;"/>
    <g id="GB">
        <path d="M8.828,255.999L24.162,255.999L105.932,202.425L105.932,255.999L150.07,255.999L150.07,202.425L231.839,255.999L247.173,255.999C252.048,255.999 256.001,252.046 256.001,247.171L256.001,240.169L185.846,194.206L256,194.206L256,150.068L185.845,150.068L256,104.105L256,97.103C256,92.227 252.047,88.275 247.172,88.275L231.838,88.275L150.068,141.849L150.068,88.275L105.93,88.275L105.93,141.849L26.844,90.033C17.61,92.933 9.89,99.236 5.133,107.467L70.156,150.068L0,150.068L0,194.206L70.155,194.206L0,240.169L0,247.171C0,252.046 3.951,255.999 8.828,255.999Z" style="fill:rgb(245,245,245);fill-rule:nonzero;"/>
        <g>
            <path d="M256,158.896L141.241,158.896L141.241,88.275L114.759,88.275L114.759,158.896L0,158.896L0,185.378L114.759,185.378L114.759,255.999L141.241,255.999L141.241,185.378L256,185.378L256,158.896Z" style="fill:rgb(255,75,85);fill-rule:nonzero;"/>
            <path d="M8.227,102.901L80.889,150.068L97.103,150.068L14.607,96.518C12.238,98.388 10.097,100.531 8.227,102.901Z" style="fill:rgb(255,75,85);fill-rule:nonzero;"/>
            <path d="M166.283,150.068L254.657,92.702C253.121,90.103 250.411,88.275 247.172,88.275L245.262,88.275L150.069,150.068L166.283,150.068Z" style="fill:rgb(255,75,85);fill-rule:nonzero;"/>
            <path d="M89.474,194.206L1.269,251.462C2.79,254.124 5.542,255.999 8.828,255.999L10.493,255.999L105.689,194.206L89.474,194.206Z" style="fill:rgb(255,75,85);fill-rule:nonzero;"/>
            <path d="M255.86,247.865L173.194,194.207L156.98,194.207L250.854,255.142C253.666,253.837 255.595,251.102 255.86,247.865Z" style="fill:rgb(255,75,85);fill-rule:nonzero;"/>
        </g>
    </g>
    <g>
        <path d="M130.671,304.13L137.334,326.127L158.687,317.622C160.509,316.896 162.165,318.974 161.053,320.588L148.009,339.512L167.971,350.903C169.674,351.875 169.083,354.465 167.127,354.602L144.198,356.203L147.739,378.912C148.041,380.85 145.647,382.003 144.321,380.558L128.773,363.63L113.225,380.558C111.899,382.002 109.505,380.849 109.807,378.912L113.348,356.203L90.419,354.602C88.463,354.465 87.871,351.875 89.575,350.903L109.537,339.512L96.493,320.588C95.381,318.974 97.037,316.896 98.859,317.622L120.212,326.127L126.875,304.13C127.446,302.253 130.103,302.253 130.671,304.13Z" style="fill:rgb(245,245,245);fill-rule:nonzero;"/>
        <path d="M393.279,147.729L396.534,158.474L406.964,154.32C407.853,153.966 408.663,154.98 408.119,155.769L401.748,165.014L411.499,170.579C412.331,171.053 412.042,172.319 411.086,172.385L399.886,173.167L401.615,184.26C401.763,185.207 400.593,185.77 399.945,185.064L392.35,176.795L384.755,185.064C384.107,185.769 382.938,185.206 383.085,184.26L384.814,173.167L373.614,172.385C372.658,172.318 372.369,171.053 373.201,170.579L382.952,165.014L376.581,155.769C376.037,154.98 376.847,153.966 377.736,154.32L388.167,158.474L391.422,147.729C391.703,146.811 393.002,146.811 393.279,147.729Z" style="fill:rgb(245,245,245);fill-rule:nonzero;"/>
        <path d="M320.702,230.204L323.957,240.949L334.388,236.795C335.277,236.441 336.087,237.455 335.543,238.244L329.172,247.489L338.923,253.054C339.755,253.528 339.466,254.794 338.51,254.86L327.31,255.642L329.04,266.735C329.188,267.682 328.018,268.245 327.37,267.539L319.775,259.27L312.18,267.539C311.532,268.244 310.363,267.681 310.51,266.735L312.24,255.642L301.04,254.86C300.084,254.793 299.795,253.528 300.627,253.054L310.378,247.489L304.007,238.244C303.463,237.455 304.273,236.441 305.162,236.795L315.593,240.949L318.848,230.204C319.126,229.287 320.424,229.287 320.702,230.204Z" style="fill:rgb(245,245,245);fill-rule:nonzero;"/>
        <path d="M461.943,194.893L465.198,205.638L475.629,201.484C476.518,201.13 477.328,202.144 476.784,202.933L470.413,212.178L480.164,217.743C480.996,218.217 480.707,219.483 479.751,219.549L468.551,220.331L470.281,231.424C470.429,232.371 469.259,232.934 468.611,232.228L461.016,223.959L453.421,232.228C452.773,232.933 451.604,232.37 451.752,231.424L453.482,220.331L442.282,219.549C441.326,219.482 441.037,218.217 441.869,217.743L451.62,212.178L445.249,202.933C444.705,202.144 445.515,201.13 446.404,201.484L456.835,205.638L460.09,194.893C460.367,193.977 461.665,193.977 461.943,194.893Z" style="fill:rgb(245,245,245);fill-rule:nonzero;"/>
        <path d="M393.279,336.135L396.534,346.88L406.964,342.725C407.853,342.371 408.663,343.385 408.119,344.174L401.748,353.419L411.499,358.984C412.331,359.458 412.042,360.724 411.086,360.79L399.886,361.572L401.615,372.665C401.763,373.612 400.593,374.175 399.945,373.469L392.35,365.2L384.755,373.469C384.107,374.174 382.938,373.611 383.085,372.665L384.814,361.572L373.614,360.79C372.658,360.724 372.369,359.458 373.201,358.984L382.952,353.419L376.581,344.174C376.037,343.385 376.847,342.371 377.736,342.725L388.167,346.88L391.422,336.135C391.703,335.219 393.002,335.219 393.279,336.135Z" style="fill:rgb(245,245,245);fill-rule:nonzero;"/>
        <path d="M418.461,249.512L415.848,257.348L407.589,257.412C406.52,257.421 406.076,258.785 406.937,259.42L413.581,264.327L411.089,272.202C410.767,273.222 411.928,274.065 412.797,273.443L419.517,268.64L426.237,273.443C427.107,274.064 428.267,273.221 427.945,272.202L425.453,264.327L432.098,259.42C432.959,258.784 432.515,257.421 431.446,257.412L423.187,257.348L420.574,249.512C420.234,248.498 418.799,248.498 418.461,249.512Z" style="fill:rgb(245,245,245);fill-rule:nonzero;"/>
    </g>
</svg>
