<?xml version="1.0" encoding="UTF-8" standalone="no"?>
<!DOCTYPE svg PUBLIC "-//W3C//DTD SVG 1.1//EN" "http://www.w3.org/Graphics/SVG/1.1/DTD/svg11.dtd">
<svg width="100%" height="100%" viewBox="0 0 512 512" version="1.1" xmlns="http://www.w3.org/2000/svg" xmlns:xlink="http://www.w3.org/1999/xlink" xml:space="preserve" xmlns:serif="http://www.serif.com/" style="fill-rule:evenodd;clip-rule:evenodd;stroke-linejoin:round;stroke-miterlimit:2;">
    <path d="M473.655,423.724L38.345,423.724C17.167,423.724 0,406.557 0,385.379L0,126.621C0,105.444 17.167,88.276 38.345,88.276L473.655,88.276C494.832,88.276 512,105.443 512,126.621L512,385.38C512,406.557 494.833,423.724 473.655,423.724Z" style="fill:rgb(255,75,85);fill-rule:nonzero;"/>
    <path d="M353.103,220.69L291.31,220.69L291.31,158.897C291.31,154.022 287.357,150.069 282.482,150.069L229.516,150.069C224.641,150.069 220.688,154.022 220.688,158.897L220.688,220.69L158.895,220.69C154.02,220.69 150.067,224.643 150.067,229.518L150.067,282.484C150.067,287.359 154.02,291.312 158.895,291.312L220.688,291.312L220.688,353.105C220.688,357.98 224.641,361.933 229.516,361.933L282.482,361.933C287.357,361.933 291.31,357.98 291.31,353.105L291.31,291.31L353.103,291.31C357.978,291.31 361.931,287.357 361.931,282.482L361.931,229.516C361.931,224.642 357.978,220.69 353.103,220.69Z" style="fill:rgb(245,245,245);fill-rule:nonzero;"/>
</svg>
