<?xml version="1.0" encoding="UTF-8" standalone="no"?>
<!DOCTYPE svg PUBLIC "-//W3C//DTD SVG 1.1//EN" "http://www.w3.org/Graphics/SVG/1.1/DTD/svg11.dtd">
<svg width="100%" height="100%" viewBox="0 0 512 512" version="1.1" xmlns="http://www.w3.org/2000/svg" xmlns:xlink="http://www.w3.org/1999/xlink" xml:space="preserve" xmlns:serif="http://www.serif.com/" style="fill-rule:evenodd;clip-rule:evenodd;stroke-linejoin:round;stroke-miterlimit:2;">
    <g>
        <path d="M0,385.379C0,406.556 17.167,423.724 38.345,423.724L473.655,423.724C494.832,423.724 512,406.557 512,385.379L512,353.103L0,353.103L0,385.379Z" style="fill:rgb(200,65,75);fill-rule:nonzero;"/>
        <path d="M473.655,88.276L38.345,88.276C17.167,88.276 0,105.443 0,126.621L0,158.897L512,158.897L512,126.621C512,105.443 494.833,88.276 473.655,88.276Z" style="fill:rgb(200,65,75);fill-rule:nonzero;"/>
    </g>
    <rect x="0" y="158.9" width="512" height="194.21" style="fill:rgb(255,210,80);"/>
    <path d="M216.276,256L223.761,222.319C224.451,219.217 222.09,216.275 218.912,216.275L213.64,216.275C210.463,216.275 208.103,219.218 208.791,222.319L216.276,256Z" style="fill:rgb(200,65,75);fill-rule:nonzero;"/>
    <rect x="207.45" y="238.34" width="17.655" height="75.03" style="fill:rgb(245,245,245);"/>
    <rect x="203.03" y="229.52" width="26.483" height="8.828" style="fill:rgb(250,180,70);"/>
    <g>
        <rect x="185.38" y="256" width="44.14" height="8.828" style="fill:rgb(200,65,75);"/>
        <path d="M229.517,291.31L203.034,282.483L203.034,273.655L229.517,282.483L229.517,291.31Z" style="fill:rgb(200,65,75);fill-rule:nonzero;"/>
        <path d="M83.862,256L91.347,222.319C92.037,219.217 89.676,216.275 86.498,216.275L81.226,216.275C78.049,216.275 75.689,219.218 76.377,222.319L83.862,256Z" style="fill:rgb(200,65,75);fill-rule:nonzero;"/>
    </g>
    <path d="M114.759,229.517C109.884,229.517 105.931,233.47 105.931,238.345L105.931,295.724C105.931,306.449 115.941,326.621 150.069,326.621C184.197,326.621 194.207,306.45 194.207,295.724L194.207,238.345C194.207,233.47 190.254,229.517 185.379,229.517L114.759,229.517Z" style="fill:rgb(245,245,245);fill-rule:nonzero;"/>
    <g>
        <path d="M150.069,273.655L105.931,273.655L105.931,238.345C105.931,233.47 109.884,229.517 114.759,229.517L150.069,229.517L150.069,273.655Z" style="fill:rgb(200,65,75);fill-rule:nonzero;"/>
        <path d="M150.069,273.655L194.207,273.655L194.207,295.724C194.207,307.913 184.327,317.793 172.138,317.793C159.949,317.793 150.069,307.913 150.069,295.724L150.069,273.655Z" style="fill:rgb(200,65,75);fill-rule:nonzero;"/>
    </g>
    <path d="M105.931,273.655L150.069,273.655L150.069,295.724C150.069,307.913 140.189,317.793 128,317.793C115.811,317.793 105.931,307.913 105.931,295.724L105.931,273.655Z" style="fill:rgb(250,180,70);fill-rule:nonzero;"/>
    <g>
        <path d="M141.241,313.28L141.241,273.655L132.413,273.655L132.413,317.348C135.697,316.682 138.664,315.228 141.241,313.28Z" style="fill:rgb(200,65,75);fill-rule:nonzero;"/>
        <path d="M123.586,317.348L123.586,273.655L114.758,273.655L114.758,313.28C117.336,315.228 120.303,316.682 123.586,317.348Z" style="fill:rgb(200,65,75);fill-rule:nonzero;"/>
    </g>
    <rect x="114.76" y="256" width="26.483" height="8.828" style="fill:rgb(255,180,65);"/>
    <g>
        <rect x="114.76" y="238.34" width="26.483" height="8.828" style="fill:rgb(250,180,70);"/>
        <rect x="119.17" y="243.59" width="17.655" height="15.992" style="fill:rgb(250,180,70);"/>
    </g>
    <rect x="75.03" y="238.34" width="17.655" height="75.03" style="fill:rgb(245,245,245);"/>
    <g>
        <rect x="70.62" y="308.97" width="26.483" height="8.828" style="fill:rgb(250,180,70);"/>
        <rect x="70.62" y="229.52" width="26.483" height="8.828" style="fill:rgb(250,180,70);"/>
    </g>
    <rect x="66.21" y="317.79" width="35.31" height="8.828" style="fill:rgb(80,100,170);"/>
    <rect x="207.45" y="308.97" width="26.483" height="8.828" style="fill:rgb(250,180,70);"/>
    <rect x="198.62" y="317.79" width="35.31" height="8.828" style="fill:rgb(80,100,170);"/>
    <rect x="123.59" y="220.69" width="52.966" height="8.828" style="fill:rgb(250,180,70);"/>
    <rect x="145.66" y="194.21" width="8.828" height="26.483" style="fill:rgb(255,180,65);"/>
    <g>
        <path d="M141.241,207.448C133.939,207.448 128,201.508 128,194.207C128,186.905 133.94,180.966 141.241,180.966C148.543,180.966 154.482,186.906 154.482,194.207C154.483,201.508 148.543,207.448 141.241,207.448ZM141.241,189.793C138.806,189.793 136.827,191.771 136.827,194.207C136.827,196.642 138.805,198.621 141.241,198.621C143.677,198.621 145.655,196.643 145.655,194.207C145.655,191.772 143.677,189.793 141.241,189.793Z" style="fill:rgb(245,245,245);fill-rule:nonzero;"/>
        <path d="M158.897,207.448C151.595,207.448 145.656,201.508 145.656,194.207C145.656,186.905 151.596,180.966 158.897,180.966C166.199,180.966 172.138,186.906 172.138,194.207C172.138,201.508 166.198,207.448 158.897,207.448ZM158.897,189.793C156.462,189.793 154.483,191.771 154.483,194.207C154.483,196.642 156.461,198.621 158.897,198.621C161.332,198.621 163.311,196.643 163.311,194.207C163.31,191.772 161.332,189.793 158.897,189.793Z" style="fill:rgb(245,245,245);fill-rule:nonzero;"/>
        <path d="M176.552,216.276C169.25,216.276 163.311,210.336 163.311,203.035C163.311,195.733 169.251,189.794 176.552,189.794C183.854,189.794 189.793,195.734 189.793,203.035C189.793,210.336 183.853,216.276 176.552,216.276ZM176.552,198.621C174.117,198.621 172.138,200.599 172.138,203.035C172.138,205.47 174.116,207.449 176.552,207.449C178.987,207.449 180.966,205.471 180.966,203.035C180.966,200.599 178.987,198.621 176.552,198.621Z" style="fill:rgb(245,245,245);fill-rule:nonzero;"/>
        <path d="M123.586,216.276C116.284,216.276 110.345,210.336 110.345,203.035C110.345,195.733 116.285,189.794 123.586,189.794C130.888,189.794 136.827,195.734 136.827,203.035C136.828,210.336 130.888,216.276 123.586,216.276ZM123.586,198.621C121.151,198.621 119.172,200.599 119.172,203.035C119.172,205.47 121.15,207.449 123.586,207.449C126.022,207.449 128,205.47 128,203.034C128,200.599 126.022,198.621 123.586,198.621Z" style="fill:rgb(245,245,245);fill-rule:nonzero;"/>
    </g>
    <path d="M176.552,291.31L176.552,295.724C176.552,298.158 174.572,300.138 172.138,300.138C169.704,300.138 167.724,298.158 167.724,295.724L167.724,291.31L176.552,291.31M185.379,282.483L158.896,282.483L158.896,295.724C158.896,303.026 164.836,308.965 172.137,308.965C179.439,308.965 185.378,303.025 185.378,295.724L185.378,282.483L185.379,282.483Z" style="fill:rgb(250,180,70);fill-rule:nonzero;"/>
    <path d="M172.138,264.828C167.263,264.828 163.31,260.875 163.31,256L163.31,247.172C163.31,242.297 167.263,238.344 172.138,238.344C177.013,238.344 180.966,242.297 180.966,247.172L180.966,256C180.966,260.875 177.013,264.828 172.138,264.828Z" style="fill:rgb(255,160,210);fill-rule:nonzero;"/>
    <circle cx="150.07" cy="273.65" r="13.241" style="fill:rgb(80,100,170);"/>
    <rect x="145.66" y="176.55" width="8.828" height="26.483" style="fill:rgb(250,180,70);"/>
    <path d="M123.586,220.69L114.758,211.862L119.929,206.691C127.922,198.698 138.764,194.207 150.069,194.207C161.374,194.207 172.215,198.698 180.209,206.691L185.38,211.862L176.552,220.69L123.586,220.69Z" style="fill:rgb(200,65,75);fill-rule:nonzero;"/>
    <g>
        <circle cx="150.07" cy="211.86" r="4.414" style="fill:rgb(255,210,80);"/>
        <circle cx="132.41" cy="211.86" r="4.414" style="fill:rgb(255,210,80);"/>
        <circle cx="167.72" cy="211.86" r="4.414" style="fill:rgb(255,210,80);"/>
    </g>
    <g>
        <rect x="70.62" y="256" width="44.14" height="8.828" style="fill:rgb(200,65,75);"/>
        <path d="M70.621,291.31L97.103,282.483L97.103,273.655L70.621,282.483L70.621,291.31Z" style="fill:rgb(200,65,75);fill-rule:nonzero;"/>
    </g>
</svg>
