<?xml version="1.0" encoding="UTF-8" standalone="no"?>
<!DOCTYPE svg PUBLIC "-//W3C//DTD SVG 1.1//EN" "http://www.w3.org/Graphics/SVG/1.1/DTD/svg11.dtd">
<svg width="100%" height="100%" viewBox="0 0 512 512" version="1.1" xmlns="http://www.w3.org/2000/svg" xmlns:xlink="http://www.w3.org/1999/xlink" xml:space="preserve" xmlns:serif="http://www.serif.com/" style="fill-rule:evenodd;clip-rule:evenodd;stroke-linejoin:round;stroke-miterlimit:2;">
    <path d="M473.655,88.275L38.345,88.275C17.167,88.275 0,105.442 0,126.62L0,385.38C0,406.557 17.167,423.725 38.345,423.725L473.655,423.725C494.832,423.725 512,406.558 512,385.38L512,126.62C512,105.442 494.833,88.275 473.655,88.275Z" style="fill:rgb(65,71,155);fill-rule:nonzero;"/>
    <g id="Stars">
        <path d="M259.59,126.684L263.13,137.297L274.317,137.384C275.766,137.395 276.366,139.243 275.201,140.104L266.201,146.75L269.575,157.416C270.012,158.796 268.44,159.94 267.261,159.097L258.16,152.591L249.059,159.097C247.881,159.939 246.308,158.797 246.745,157.416L250.119,146.75L241.119,140.104C239.954,139.243 240.554,137.395 242.003,137.384L253.19,137.297L256.73,126.684C257.187,125.31 259.132,125.31 259.59,126.684Z" style="fill:rgb(255,225,90);fill-rule:nonzero;"/>
        <path d="M259.59,354.547L263.13,365.16L274.317,365.247C275.766,365.258 276.366,367.106 275.201,367.967L266.201,374.613L269.575,385.279C270.012,386.659 268.44,387.803 267.261,386.96L258.16,380.454L249.059,386.96C247.881,387.802 246.308,386.66 246.745,385.279L250.119,374.613L241.119,367.967C239.954,367.106 240.554,365.258 242.003,365.247L253.19,365.16L256.73,354.547C257.187,353.172 259.132,353.172 259.59,354.547Z" style="fill:rgb(255,225,90);fill-rule:nonzero;"/>
        <path d="M373.521,240.615L377.061,251.228L388.248,251.315C389.697,251.326 390.297,253.174 389.132,254.035L380.132,260.681L383.506,271.347C383.943,272.727 382.371,273.871 381.192,273.028L372.091,266.522L362.99,273.028C361.812,273.87 360.239,272.728 360.676,271.347L364.05,260.681L355.05,254.035C353.885,253.174 354.485,251.326 355.934,251.315L367.121,251.228L370.661,240.615C371.118,239.242 373.063,239.242 373.521,240.615Z" style="fill:rgb(255,225,90);fill-rule:nonzero;"/>
        <path d="M145.658,240.615L149.198,251.228L160.385,251.315C161.834,251.326 162.434,253.174 161.269,254.035L152.269,260.681L155.643,271.347C156.08,272.727 154.508,273.871 153.329,273.028L144.228,266.522L135.127,273.028C133.949,273.87 132.376,272.728 132.813,271.347L136.187,260.681L127.187,254.035C126.022,253.174 126.622,251.326 128.071,251.315L139.258,251.228L142.798,240.615C143.256,239.242 145.201,239.242 145.658,240.615Z" style="fill:rgb(255,225,90);fill-rule:nonzero;"/>
        <path d="M162.762,181.119L166.302,191.732L177.489,191.819C178.938,191.83 179.538,193.678 178.373,194.539L169.373,201.185L172.747,211.851C173.184,213.231 171.612,214.375 170.433,213.532L161.332,207.026L152.231,213.532C151.053,214.374 149.48,213.232 149.917,211.851L153.291,201.185L144.291,194.539C143.126,193.678 143.726,191.83 145.175,191.819L156.362,191.732L159.902,181.119C160.36,179.745 162.303,179.745 162.762,181.119Z" style="fill:rgb(255,225,90);fill-rule:nonzero;"/>
        <path d="M360.096,295.05L363.636,305.663L374.823,305.75C376.272,305.761 376.872,307.609 375.707,308.47L366.707,315.116L370.081,325.782C370.518,327.164 368.946,328.306 367.767,327.463L358.666,320.957L349.565,327.463C348.387,328.305 346.814,327.163 347.251,325.782L350.625,315.116L341.625,308.47C340.46,307.609 341.06,305.761 342.509,305.75L353.696,305.663L357.236,295.05C357.694,293.677 359.638,293.677 360.096,295.05Z" style="fill:rgb(255,225,90);fill-rule:nonzero;"/>
        <path d="M318.395,139.417L321.935,150.03L333.122,150.117C334.571,150.128 335.171,151.976 334.006,152.837L325.006,159.483L328.38,170.149C328.817,171.529 327.245,172.673 326.066,171.83L316.965,165.324L307.863,171.83C306.685,172.672 305.112,171.53 305.549,170.149L308.923,159.483L299.923,152.837C298.758,151.976 299.358,150.128 300.807,150.117L311.994,150.03L315.534,139.417C315.992,138.044 317.935,138.044 318.395,139.417Z" style="fill:rgb(255,225,90);fill-rule:nonzero;"/>
        <path d="M204.463,336.753L208.003,347.366L219.19,347.453C220.639,347.464 221.239,349.312 220.074,350.173L211.074,356.819L214.448,367.485C214.885,368.865 213.313,370.009 212.134,369.166L203.033,362.66L193.932,369.166C192.754,370.008 191.181,368.866 191.618,367.485L194.992,356.819L185.992,350.173C184.827,349.312 185.427,347.464 186.876,347.453L198.063,347.367L201.603,336.754C202.061,335.378 204.006,335.378 204.463,336.753Z" style="fill:rgb(255,225,90);fill-rule:nonzero;"/>
        <path d="M357.236,181.119L353.696,191.732L342.509,191.819C341.06,191.83 340.46,193.678 341.625,194.539L350.625,201.185L347.251,211.851C346.814,213.231 348.386,214.375 349.565,213.532L358.666,207.026L367.767,213.532C368.945,214.374 370.518,213.232 370.081,211.851L366.707,201.185L375.707,194.539C376.872,193.678 376.272,191.83 374.823,191.819L363.636,191.732L360.096,181.119C359.638,179.745 357.694,179.745 357.236,181.119Z" style="fill:rgb(255,225,90);fill-rule:nonzero;"/>
        <path d="M159.902,295.05L156.362,305.663L145.175,305.75C143.726,305.761 143.126,307.609 144.291,308.47L153.291,315.116L149.917,325.782C149.48,327.164 151.052,328.306 152.231,327.463L161.332,320.957L170.433,327.463C171.611,328.305 173.184,327.163 172.747,325.782L169.373,315.116L178.373,308.47C179.538,307.609 178.938,305.761 177.489,305.75L166.302,305.663L162.762,295.05C162.303,293.677 160.36,293.677 159.902,295.05Z" style="fill:rgb(255,225,90);fill-rule:nonzero;"/>
        <path d="M201.603,139.417L198.063,150.03L186.876,150.117C185.427,150.128 184.827,151.976 185.992,152.837L194.992,159.483L191.618,170.149C191.181,171.529 192.753,172.673 193.932,171.83L203.033,165.324L212.134,171.83C213.312,172.672 214.885,171.53 214.448,170.149L211.074,159.483L220.074,152.837C221.239,151.976 220.639,150.128 219.19,150.117L208.003,150.03L204.463,139.417C204.004,138.044 202.061,138.044 201.603,139.417Z" style="fill:rgb(255,225,90);fill-rule:nonzero;"/>
        <path d="M315.534,336.753L311.994,347.366L300.807,347.453C299.358,347.464 298.758,349.312 299.923,350.173L308.923,356.819L305.549,367.485C305.112,368.865 306.684,370.009 307.863,369.166L316.964,362.66L326.065,369.166C327.243,370.008 328.816,368.866 328.379,367.485L325.005,356.819L334.005,350.173C335.17,349.312 334.57,347.464 333.121,347.453L321.934,347.367L318.394,336.754C317.935,335.378 315.992,335.378 315.534,336.753Z" style="fill:rgb(255,225,90);fill-rule:nonzero;"/>
    </g>
</svg>
