<?xml version="1.0" encoding="UTF-8" standalone="no"?>
<!DOCTYPE svg PUBLIC "-//W3C//DTD SVG 1.1//EN" "http://www.w3.org/Graphics/SVG/1.1/DTD/svg11.dtd">
<svg width="100%" height="100%" viewBox="0 0 512 512" version="1.1" xmlns="http://www.w3.org/2000/svg" xmlns:xlink="http://www.w3.org/1999/xlink" xml:space="preserve" xmlns:serif="http://www.serif.com/" style="fill-rule:evenodd;clip-rule:evenodd;stroke-linejoin:round;stroke-miterlimit:2;">
    <path d="M473.655,88.276L38.345,88.276C17.167,88.276 0,105.443 0,126.621L0,385.38C0,406.557 17.167,423.725 38.345,423.725L473.655,423.725C494.832,423.725 512,406.558 512,385.38L512,126.621C512,105.443 494.833,88.276 473.655,88.276Z" style="fill:rgb(65,71,155);fill-rule:nonzero;"/>
    <path d="M511.469,120.282C508.447,102.123 492.672,88.275 473.655,88.275L463.678,88.275L300.138,195.422L300.138,88.276L211.862,88.276L211.862,195.423L48.322,88.276L38.345,88.276C19.328,88.276 3.553,102.123 0.531,120.283L140.309,211.863L0,211.863L0,300.139L140.309,300.139L0.531,391.717C3.553,409.876 19.328,423.724 38.345,423.724L48.322,423.724L211.862,316.577L211.862,423.724L300.138,423.724L300.138,316.577L463.678,423.724L473.655,423.724C492.672,423.724 508.447,409.877 511.469,391.717L371.691,300.137L512,300.137L512,211.861L371.691,211.861L511.469,120.282Z" style="fill:rgb(245,245,245);fill-rule:nonzero;"/>
    <g>
        <path d="M282.483,88.276L229.517,88.276L229.517,229.517L0,229.517L0,282.483L229.517,282.483L229.517,423.724L282.483,423.724L282.483,282.483L512,282.483L512,229.517L282.483,229.517L282.483,88.276Z" style="fill:rgb(255,75,85);fill-rule:nonzero;"/>
        <path d="M24.793,421.252L211.376,300.138L178.948,300.138L9.224,410.31C13.377,415.157 18.714,418.955 24.793,421.252Z" style="fill:rgb(255,75,85);fill-rule:nonzero;"/>
        <path d="M346.388,300.138L313.96,300.138L494.676,417.443C499.733,414.122 503.953,409.636 506.963,404.368L346.388,300.138Z" style="fill:rgb(255,75,85);fill-rule:nonzero;"/>
        <path d="M4.049,109.475L161.779,211.862L194.207,211.862L15.475,95.842C10.676,99.414 6.749,104.084 4.049,109.475Z" style="fill:rgb(255,75,85);fill-rule:nonzero;"/>
        <path d="M332.566,211.862L502.601,101.487C498.402,96.656 493.023,92.88 486.902,90.627L300.138,211.862L332.566,211.862Z" style="fill:rgb(255,75,85);fill-rule:nonzero;"/>
    </g>
</svg>
