<?xml version="1.0" encoding="UTF-8" standalone="no"?>
<!DOCTYPE svg PUBLIC "-//W3C//DTD SVG 1.1//EN" "http://www.w3.org/Graphics/SVG/1.1/DTD/svg11.dtd">
<svg width="100%" height="100%" viewBox="0 0 512 512" version="1.1" xmlns="http://www.w3.org/2000/svg" xmlns:xlink="http://www.w3.org/1999/xlink" xml:space="preserve" xmlns:serif="http://www.serif.com/" style="fill-rule:evenodd;clip-rule:evenodd;stroke-linejoin:round;stroke-miterlimit:2;">
    <path d="M0,385.38C0,406.556 17.167,423.725 38.345,423.725L473.656,423.725C494.821,423.725 511.98,406.577 512,385.418L512,311.909L0,311.909L0,385.38Z" style="fill:rgb(65,71,155);fill-rule:nonzero;"/>
    <path d="M473.656,88.275L38.345,88.275C17.167,88.275 0,105.443 0,126.62L0,200.091L512,200.091L512,126.582C511.98,105.424 494.821,88.275 473.656,88.275Z" style="fill:rgb(255,75,85);fill-rule:nonzero;"/>
    <rect x="0" y="200.089" width="512" height="111.81" style="fill:rgb(245,245,245);"/>
    <g>
        <rect x="194.21" y="203.029" width="24.717" height="28.25" style="fill:rgb(255,75,85);"/>
        <rect x="243.64" y="203.029" width="24.717" height="28.25" style="fill:rgb(255,75,85);"/>
        <rect x="218.93" y="231.279" width="24.717" height="28.25" style="fill:rgb(255,75,85);"/>
        <rect x="293.08" y="203.029" width="24.717" height="28.25" style="fill:rgb(255,75,85);"/>
        <rect x="268.36" y="231.279" width="24.717" height="28.25" style="fill:rgb(255,75,85);"/>
    </g>
    <g>
        <rect x="218.93" y="203.029" width="24.717" height="28.25" style="fill:rgb(245,245,245);"/>
        <rect x="268.36" y="203.029" width="24.717" height="28.25" style="fill:rgb(245,245,245);"/>
        <rect x="194.21" y="231.279" width="24.717" height="28.25" style="fill:rgb(245,245,245);"/>
        <rect x="243.64" y="231.279" width="24.717" height="28.25" style="fill:rgb(245,245,245);"/>
        <rect x="293.08" y="231.279" width="24.717" height="28.25" style="fill:rgb(245,245,245);"/>
    </g>
    <g>
        <rect x="243.64" y="259.529" width="24.717" height="28.25" style="fill:rgb(255,75,85);"/>
        <rect x="218.93" y="287.779" width="24.717" height="28.25" style="fill:rgb(255,75,85);"/>
        <rect x="268.36" y="287.779" width="24.717" height="28.25" style="fill:rgb(255,75,85);"/>
    </g>
    <g>
        <rect x="218.93" y="259.529" width="24.717" height="28.25" style="fill:rgb(245,245,245);"/>
        <rect x="268.36" y="259.529" width="24.717" height="28.25" style="fill:rgb(245,245,245);"/>
        <rect x="243.64" y="287.779" width="24.717" height="28.25" style="fill:rgb(245,245,245);"/>
    </g>
    <g>
        <path d="M317.793,203.035L317.793,282.483C317.793,316.611 290.127,344.276 256,344.276C221.873,344.276 194.207,316.61 194.207,282.483L194.207,203.035L317.793,203.035M322.206,198.62L189.792,198.62L189.792,282.482C189.792,318.989 219.492,348.689 255.999,348.689C292.506,348.689 322.206,318.988 322.206,282.482L322.206,198.62Z" style="fill:rgb(255,75,85);fill-rule:nonzero;"/>
        <path d="M218.924,287.779L218.924,259.53L194.207,259.53L194.207,282.483C194.207,284.272 194.325,286.029 194.474,287.78L218.924,287.779Z" style="fill:rgb(255,75,85);fill-rule:nonzero;"/>
    </g>
    <g>
        <path d="M317.526,287.779L293.076,287.779L293.076,316.027L307.85,316.027C313.211,307.758 316.644,298.14 317.526,287.779Z" style="fill:rgb(245,245,245);fill-rule:nonzero;"/>
        <path d="M204.149,316.028L218.923,316.028L218.923,287.78L194.473,287.78C195.355,298.14 198.788,307.758 204.149,316.028Z" style="fill:rgb(245,245,245);fill-rule:nonzero;"/>
    </g>
    <g>
        <path d="M293.075,287.779L317.525,287.779C317.674,286.03 317.792,284.271 317.792,282.482L317.792,259.53L293.075,259.53L293.075,287.779Z" style="fill:rgb(255,75,85);fill-rule:nonzero;"/>
        <path d="M218.924,331.833L218.924,316.028L204.15,316.028C208.107,322.133 213.122,327.467 218.924,331.833Z" style="fill:rgb(255,75,85);fill-rule:nonzero;"/>
        <path d="M307.849,316.028L293.075,316.028L293.075,331.834C298.876,327.467 303.89,322.133 307.849,316.028Z" style="fill:rgb(255,75,85);fill-rule:nonzero;"/>
    </g>
    <g>
        <path d="M218.924,331.833C226.119,337.248 234.491,341.178 243.641,343.035L243.641,316.028L218.924,316.028L218.924,331.833Z" style="fill:rgb(245,245,245);fill-rule:nonzero;"/>
        <path d="M268.358,343.034C277.508,341.177 285.881,337.246 293.075,331.832L293.075,316.027L268.358,316.027L268.358,343.034Z" style="fill:rgb(245,245,245);fill-rule:nonzero;"/>
    </g>
    <path d="M268.359,316.028L243.641,316.028L243.641,343.036C247.634,343.847 251.767,344.277 256,344.277C260.233,344.277 264.365,343.847 268.359,343.036L268.359,316.028Z" style="fill:rgb(255,75,85);fill-rule:nonzero;"/>
    <g>
        <path d="M211.27,156.29C205.892,155.458 200.39,154.858 194.781,154.511C190.443,158.082 186.308,161.805 182.383,165.661C186.325,175.176 190.266,184.691 194.206,194.206C202.119,190.929 210.227,188.306 218.453,186.339C216.059,176.324 213.664,166.307 211.27,156.29Z" style="fill:rgb(65,115,205);fill-rule:nonzero;"/>
        <path d="M271.002,151.604C266.169,149.159 261.165,146.898 255.999,144.839C250.834,146.899 245.829,149.16 240.996,151.604C241.799,161.871 242.603,172.138 243.406,182.407C251.788,181.75 260.21,181.75 268.592,182.407C269.395,172.139 270.199,161.872 271.002,151.604Z" style="fill:rgb(65,115,205);fill-rule:nonzero;"/>
        <path d="M329.616,165.661C325.691,161.806 321.555,158.083 317.218,154.511C311.609,154.857 306.107,155.458 300.729,156.29C298.334,166.307 295.94,176.323 293.545,186.339C301.771,188.306 309.879,190.928 317.792,194.206C321.734,184.69 325.676,175.175 329.616,165.661Z" style="fill:rgb(65,115,205);fill-rule:nonzero;"/>
    </g>
    <g>
        <path d="M240.996,151.604C235.842,149.941 230.54,148.486 225.102,147.258C220.304,150.099 215.691,153.116 211.27,156.291C213.664,166.308 216.059,176.324 218.453,186.34C226.679,184.373 235.022,183.063 243.405,182.407C242.602,172.139 241.799,161.872 240.996,151.604Z" style="fill:rgb(65,71,155);fill-rule:nonzero;"/>
        <path d="M300.729,156.29C296.307,153.115 291.694,150.097 286.897,147.257C281.459,148.485 276.156,149.942 271.003,151.603C270.2,161.87 269.396,172.137 268.593,182.406C276.976,183.061 285.319,184.372 293.545,186.339C295.94,176.324 298.334,166.307 300.729,156.29Z" style="fill:rgb(65,71,155);fill-rule:nonzero;"/>
    </g>
    <g>
        <path d="M241.96,163.925C232.615,164.655 223.314,166.116 214.143,168.31C213.664,166.307 213.185,164.303 212.706,162.299C222.191,160.033 231.811,158.521 241.477,157.764C241.639,159.818 241.799,161.871 241.96,163.925Z" style="fill:rgb(255,75,85);fill-rule:nonzero;"/>
        <path d="M242.925,176.245C234.222,176.926 225.559,178.287 217.018,180.329C216.538,178.326 216.06,176.322 215.581,174.32C224.436,172.202 233.419,170.791 242.443,170.086C242.602,172.137 242.764,174.193 242.925,176.245Z" style="fill:rgb(255,75,85);fill-rule:nonzero;"/>
    </g>
    <path d="M285.326,178.32C283.171,177.937 281.01,177.596 278.844,177.298C275.282,176.806 272.629,173.782 272.938,170.383C273.246,166.985 276.651,164.52 280.528,165.056C282.853,165.376 285.174,165.741 287.487,166.153C291.346,166.835 293.844,170.235 293.091,173.559C292.341,176.891 288.873,178.945 285.326,178.32Z" style="fill:rgb(255,225,90);fill-rule:nonzero;"/>
    <path d="M320.157,188.497C311.942,185.095 303.521,182.372 294.982,180.329C295.462,178.326 295.94,176.322 296.419,174.32C305.274,176.436 314.004,179.26 322.522,182.788C321.734,184.69 320.945,186.594 320.157,188.497Z" style="fill:rgb(255,75,85);fill-rule:nonzero;"/>
    <g>
        <path d="M317.952,169.958C317.079,172.365 314.135,173.51 311.353,172.605C308.572,171.699 306.87,169.055 307.574,166.593C308.278,164.131 311.26,162.828 314.21,163.787C317.163,164.744 318.826,167.551 317.952,169.958Z" style="fill:rgb(255,225,90);fill-rule:nonzero;"/>
        <path d="M204.424,166.594C205.127,169.058 203.424,171.703 200.645,172.606C197.864,173.506 194.92,172.361 194.046,169.959C193.172,167.551 194.836,164.745 197.788,163.788C200.738,162.832 203.722,164.134 204.424,166.594Z" style="fill:rgb(255,225,90);fill-rule:nonzero;"/>
        <path d="M254.589,162.548C254.595,164.595 252.755,166.262 250.475,166.332C248.196,166.405 246.253,164.851 246.133,162.812C246.014,160.772 247.852,159.006 250.244,158.929C252.637,158.854 254.58,160.501 254.589,162.548Z" style="fill:rgb(255,225,90);fill-rule:nonzero;"/>
        <path d="M265.865,162.811C265.744,164.855 263.8,166.404 261.523,166.331C259.244,166.261 257.404,164.594 257.409,162.547C257.418,160.502 259.362,158.85 261.753,158.928C264.146,159.001 265.982,160.77 265.865,162.811Z" style="fill:rgb(255,225,90);fill-rule:nonzero;"/>
        <path d="M260.007,172.079C259.95,174.126 258.157,175.736 255.999,175.736C253.843,175.735 252.05,174.127 251.991,172.079C251.935,170.038 253.728,168.324 255.999,168.329C258.27,168.324 260.063,170.036 260.007,172.079Z" style="fill:rgb(255,225,90);fill-rule:nonzero;"/>
    </g>
</svg>
