<?xml version="1.0" encoding="UTF-8" standalone="no"?>
<!DOCTYPE svg PUBLIC "-//W3C//DTD SVG 1.1//EN" "http://www.w3.org/Graphics/SVG/1.1/DTD/svg11.dtd">
<svg width="100%" height="100%" viewBox="0 0 512 512" version="1.1" xmlns="http://www.w3.org/2000/svg" xmlns:xlink="http://www.w3.org/1999/xlink" xml:space="preserve" xmlns:serif="http://www.serif.com/" style="fill-rule:evenodd;clip-rule:evenodd;stroke-linejoin:round;stroke-miterlimit:2;">
    <path d="M473.655,88.275L38.345,88.275C17.167,88.275 0,105.442 0,126.62L0,385.38C0,406.557 17.167,423.725 38.345,423.725L473.655,423.725C494.832,423.725 512,406.558 512,385.38L512,126.62C512,105.442 494.833,88.275 473.655,88.275Z" style="fill:rgb(65,115,205);fill-rule:nonzero;"/>
    <path d="M512,229.516L211.862,229.516L211.862,88.275L158.897,88.275L158.897,229.516L0,229.516L0,282.482L158.897,282.482L158.897,423.724L211.862,423.724L211.862,282.482L512,282.482L512,229.516Z" style="fill:rgb(255,225,90);fill-rule:nonzero;"/>
</svg>
