<?xml version="1.0" encoding="UTF-8" standalone="no"?>
<!DOCTYPE svg PUBLIC "-//W3C//DTD SVG 1.1//EN" "http://www.w3.org/Graphics/SVG/1.1/DTD/svg11.dtd">
<svg width="100%" height="100%" viewBox="0 0 512 512" version="1.1" xmlns="http://www.w3.org/2000/svg" xmlns:xlink="http://www.w3.org/1999/xlink" xml:space="preserve" xmlns:serif="http://www.serif.com/" style="fill-rule:evenodd;clip-rule:evenodd;stroke-linejoin:round;stroke-miterlimit:2;">
    <path d="M473.655,88.275L38.345,88.275C17.167,88.275 0,105.442 0,126.62L0,385.38C0,406.557 17.167,423.725 38.345,423.725L473.655,423.725C494.832,423.725 512,406.558 512,385.38L512,126.62C512,105.442 494.833,88.275 473.655,88.275Z" style="fill:rgb(130,175,255);fill-rule:nonzero;"/>
    <g>
        <path d="M255.25,321.654C300.152,321.654 336.681,285.122 336.681,240.223C336.681,195.324 300.151,158.792 255.25,158.792C210.349,158.792 173.819,195.324 173.819,240.223C173.818,285.122 210.348,321.654 255.25,321.654ZM264.54,167.309L271.539,164.73C281.416,166.86 290.6,170.863 298.684,176.381C297.989,176.311 296.152,176.123 295.835,176.017C295.443,175.887 294.837,178.511 294.837,178.511L298.049,179.789L298.925,176.563C302.261,178.858 305.376,181.439 308.307,184.217L303.585,188.939L302.751,188.939L302.072,186.274L299.489,181.631L290.365,178.342L284.056,181.396L287.637,189.149C278.813,183.534 268.46,180.16 257.341,179.779L257.341,168.973L263.771,171.003L261.098,166.291L257.341,167.899L257.341,163.075C260.132,163.15 262.879,163.378 265.589,163.744L262.431,164.797L264.54,167.309ZM306.796,226.911L308.333,226.26L308.72,222.477C310.367,227.429 311.318,232.683 311.518,238.134L297.356,238.134L297.878,235.872L301.88,235.524L305.193,229.883L305.099,228.825L301.706,233.175L299.634,233.684L298.313,232.131L299.867,229.49L296.486,226.996L293.449,229.659C292.631,226.707 291.517,223.879 290.076,221.245L291.723,220.646L293.044,219.858L293.033,218.304L293.88,217.251L293.39,216.951C293.028,217.123 291.139,217.672 291.139,217.672L290.484,219.798L289.544,220.37C288.158,217.985 286.529,215.766 284.694,213.729L292.503,205.92L292.57,206.03L294.472,204.887L294.177,204.244L296.498,201.923C301.731,207.555 305.816,214.241 308.411,221.642L306.467,218.753L305.465,219.127L306.796,226.911ZM296.501,278.521L292.277,274.297L290.683,270.071L289.863,271.883L288.229,270.249L289.904,265.114L288.819,261.388L288.742,261.398C289.89,259.589 290.925,257.703 291.772,255.712L291.792,255.71C292.054,255.71 293.01,254.492 293.01,254.492L295.359,254.752L301.431,252.352L299.099,250.141L297.726,248.915L296.662,246.749L294.76,243.436C294.79,243.064 294.798,242.687 294.817,242.312L311.521,242.312C311.004,256.276 305.408,268.933 296.501,278.521ZM215.447,275.849L217.538,272.195L213.037,256.464L209.488,247.704L212.707,246.311L213.577,243.701L215.751,243.638C216.51,252.478 220.187,260.477 225.805,266.713L216.583,275.935L215.447,275.849ZM220.471,237.286L220.426,238.135L219.859,238.135C219.878,237.814 219.881,237.488 219.908,237.169L220.471,237.286ZM274.079,270.258L273.364,269.87L264.255,273.392L259.534,271.575L257.337,272.182L257.337,269.18L259.61,268.494L260.988,268.826L263.889,269.961L262.14,266.763L265.888,269.905L267.686,270.315L267.139,267.918L268.358,263.957L272.605,261.366L272.972,263.751L267.791,266.567L268.785,268.55L274.173,267.462L274.258,270.15C274.201,270.185 274.138,270.219 274.079,270.258ZM252.611,254.572L252.449,254.224L251.471,254.28C250.213,253.94 249.03,253.441 247.93,252.798L251.565,252.357L253.162,248.071L253.162,254.627C252.98,254.602 252.79,254.604 252.611,254.572ZM237.346,245.63L233.795,245.083L235.606,242.31L236.669,242.31C236.797,243.454 237.021,244.557 237.346,245.63ZM257.337,231.182L258.316,231.479L259.547,232.972L257.337,235.182L257.337,231.182ZM263.923,257.724L262.228,259.708L259.403,261.113L258.456,259.453L257.886,262.753L257.339,262.967L257.339,258.804C257.735,258.76 258.141,258.752 258.529,258.684L259.881,260.379L261.003,258.982L260.915,258.048C261.538,257.849 262.174,257.684 262.768,257.423L263.923,257.724ZM262.652,235.773L262.607,238.032L262.525,238.135L260.289,238.135L262.652,235.773ZM263.993,243.55L266.696,243.464L268.17,244.692L267.679,245.576L265.616,244.398L264.486,245.282L265.053,246.976L265.03,247.051L260.291,242.312L263.448,242.312L263.993,243.55ZM262.205,250.13L259.623,249.852L257.799,254.58C257.649,254.606 257.49,254.605 257.339,254.626L257.339,245.262L262.205,250.13ZM248.799,238.134L248.618,237.373L246.805,238.134L246.003,238.134L246.268,237.033L247.439,235.899L246.51,235.688L245.544,237.061L244.54,237.521L244.658,238.136L243.604,238.136L244.238,235.669L246.094,234.023L250.208,238.137L248.799,238.137L248.799,238.134ZM241.052,242.311L241.48,242.815L241.769,242.311L243.262,242.311L241.32,244.412C241.114,243.728 240.95,243.033 240.846,242.311L241.052,242.311ZM243.363,248.667L246.062,244.005L245.356,243.374L246.546,242.76L246.695,242.31L248.595,242.31L248.159,242.544L247.978,243.17L249.45,243.07L248.355,244.165L247.242,244.399L247.011,245.509L243.585,248.934C243.514,248.841 243.431,248.761 243.363,248.667ZM253.162,226.253L252.382,226.133L252.986,228.638L253.163,228.776L253.163,235.182L249.653,231.673L252.116,230.342L249.891,226.656C250.927,226.246 252.026,225.982 253.162,225.817L253.162,226.253ZM220.204,242.311L220.162,243.105L219.987,244.165C219.92,243.554 219.897,242.93 219.86,242.31L220.204,242.311ZM222.247,247.27L224.845,249.881L226.976,248.397L231.996,252.609L237.396,253.559L238.906,249.311C239.415,250.221 239.987,251.079 240.635,251.889L235.996,256.528L236.742,254.627L233.98,254.178L234.864,257.421L234.995,257.53L228.758,263.766C224.694,259.197 221.762,253.601 220.484,247.392L222.247,247.27ZM243.585,254.839C246.281,256.995 249.555,258.398 253.162,258.803L253.162,263.632L253.115,263.746L253.162,263.731L253.162,267.342L251.946,267.586L251.241,272.119L253.162,271.896L253.162,273.334L250.12,274.174L249.107,275.151C242.497,273.99 236.525,271.001 231.709,266.717L243.585,254.839ZM278.807,272.068L281.871,272.718L284.885,272.811L286.542,274.468L281.479,274.284L278.217,272.51C278.418,272.365 278.61,272.214 278.807,272.068ZM281.743,263.763L280.829,262.849L282.689,262.707C282.39,263.073 282.057,263.409 281.743,263.763ZM286.532,223.479C285.111,223.5 283.734,223.519 283.611,223.519C283.349,223.519 281.303,225.268 281.303,225.268L279.739,227.293L279.268,224.822L280.376,222.298L279.522,221.516L275.694,223.952L274.882,223.542L277.872,220.552L278.53,220.769L280.436,220.321L279.467,218.958L281.743,216.682C283.585,218.753 285.21,221.02 286.532,223.479ZM275.334,217.186L275.151,216.601L273.912,216.796L273.142,218.287L269.737,218.622C269.986,219.121 271.046,221.191 271.142,221.377L266.917,225.602C266.019,224.884 265.06,224.256 264.038,223.71L264.561,223.429L263.94,221.331L263.517,220.557L261.632,222.618C260.267,222.121 258.83,221.806 257.338,221.638L257.338,204.83C265.551,205.311 273.008,208.582 278.791,213.727L275.334,217.186ZM253.162,221.641C251.814,221.793 250.516,222.074 249.269,222.496L249.894,221.045L246.637,223.605L246.643,223.615C245.554,224.182 244.537,224.844 243.585,225.605L231.709,213.73C237.492,208.585 244.949,205.314 253.162,204.833L253.162,221.641ZM239.962,227.889L234.348,228.871L234.544,226.738L229.891,225.132L222.449,226.688C223.981,222.991 226.136,219.628 228.755,216.682L239.962,227.889ZM221.941,228.076L224.278,228.565L221.477,229.34C221.615,228.91 221.786,228.497 221.941,228.076ZM215.683,238.134L215.321,238.134L215.701,237.783C215.694,237.9 215.69,238.018 215.683,238.134ZM220.136,278.289L228.757,269.669C233.462,273.906 239.17,277.025 245.493,278.632L242.524,281.493L248.915,289.938L253.162,290.172L253.162,296.494C242.009,296.084 231.677,292.456 223.082,286.458L224.462,285.562L220.136,278.289ZM257.337,290.401L262.722,290.698L262.859,291.933L266.135,295.523C263.277,296.085 260.331,296.384 257.337,296.494L257.337,290.401ZM291.544,279.467L293.549,281.472C292.59,282.362 291.626,283.245 290.607,284.07L291.544,279.467ZM293.548,198.973L292.325,200.196L290.875,197.028L288.239,195.626C288.239,195.626 285.784,193.46 284.506,192.126C287.752,194.107 290.777,196.397 293.548,198.973ZM283.938,191.779L285.783,198.234L290.093,201.986L290.261,202.26L281.742,210.778C275.196,204.881 266.7,201.147 257.337,200.656L257.337,183.952C267.03,184.311 276.087,187.113 283.938,191.779ZM253.162,200.658C243.799,201.149 235.303,204.883 228.757,210.78L216.951,198.974C226.538,190.066 239.198,184.47 253.162,183.955L253.162,200.658ZM225.804,213.73C221.33,218.698 218.085,224.779 216.568,231.524L212.898,238.134L198.979,238.134C199.494,224.17 205.09,211.511 213.997,201.924L225.804,213.73ZM210.886,242.311L206.92,250.835L201.31,248.748L200.257,252.482C199.523,249.19 199.108,245.788 198.98,242.309L210.885,242.309L210.886,242.311ZM206.703,284.592L207.351,285.166L199.24,293.277C193.639,287.368 188.986,280.581 185.462,273.14L187.619,274.4L202.006,287.201L206.703,284.592ZM210.482,287.94L212.446,289.681L218.815,288.471C228.444,295.76 240.286,300.225 253.161,300.667L253.161,317.371C233.441,316.84 215.571,308.91 202.192,296.229L210.482,287.94ZM257.337,300.669C260.876,300.548 264.351,300.179 267.711,299.472L268.1,302.045L278.052,309.384L289.258,303.167L292.475,296.385L292.264,292.189L294.38,287.225L293.864,286.821C294.778,286.062 295.632,285.235 296.499,284.425L298.425,286.349L299.011,289.986L301.197,289.12L308.308,296.231C294.929,308.912 277.058,316.842 257.339,317.373L257.339,300.669L257.337,300.669ZM302.194,284.213L301.795,279.459L301.26,279.483C309.878,269.397 315.21,256.468 315.696,242.31L332.4,242.31C331.869,262.029 323.939,279.898 311.26,293.277L302.194,284.213ZM315.695,238.134C315.333,227.597 312.278,217.756 307.18,209.242L314.28,215.883L319.977,210.99L311.233,197.809L305.462,193.372L305.477,192.947L311.258,187.166C323.938,200.545 331.867,218.415 332.398,238.133L315.695,238.133L315.695,238.134ZM253.162,179.777C238.047,180.296 224.347,186.359 214,196.021L202.193,184.215C215.572,171.534 233.443,163.604 253.162,163.073L253.162,179.777ZM211.047,198.975C201.386,209.322 195.324,223.021 194.804,238.136L178.1,238.136C178.631,218.417 186.561,200.548 199.24,187.169L211.047,198.975ZM194.804,242.311C195.017,248.519 196.159,254.483 198.113,260.084L197.483,262.321L181.163,261.962C179.322,255.702 178.285,249.115 178.101,242.311L194.804,242.311Z" style="fill:rgb(245,245,245);fill-rule:nonzero;"/>
        <path d="M198.993,336.966L214.069,334.526C215.417,334.308 215.976,332.68 215.042,331.684C211.416,327.81 204.209,319.786 200.035,312.956C194.293,303.56 184.183,295.814 184.183,295.814C184.183,295.814 186.115,321.656 205.603,330.53C205.603,330.53 186.289,325.658 173.935,322.352C161.581,319.046 158.2,315.408 158.2,315.408C158.2,315.408 167.848,340.097 198.993,336.966Z" style="fill:rgb(245,245,245);fill-rule:nonzero;"/>
        <path d="M184.029,308.083C183.507,301.644 178.801,285.184 169.931,271.578C169.931,271.578 169.942,304.646 181.683,315.847C181.683,315.847 165.063,299.904 155.145,292.596C145.859,285.755 141.747,277.98 141.747,277.98C141.747,277.98 144.242,298.876 157.755,309.299C166.889,316.346 187.161,321.305 187.161,321.305C187.161,321.305 184.551,314.519 184.029,308.083Z" style="fill:rgb(245,245,245);fill-rule:nonzero;"/>
        <path d="M152.188,283.373L162.342,292.155C163.401,293.071 165.051,292.348 165.073,290.948C165.128,287.416 165.344,282.055 166.108,278.675C167.326,273.281 168.832,255.766 162.685,243.035C162.685,243.035 155.254,265.851 161.062,284.852C161.062,284.852 151.939,270.347 142.618,259.361C137.746,253.619 135.817,246.849 135.817,246.849C135.817,246.849 135.658,269.628 152.188,283.373Z" style="fill:rgb(245,245,245);fill-rule:nonzero;"/>
        <path d="M149.401,260.898C150.197,261.971 151.848,261.744 152.303,260.489C153.638,256.806 156.228,250.183 159.669,243.877C165.933,232.393 163.044,218.877 163.044,218.877C163.044,218.877 152.988,236.114 150.073,255.269C149.883,254.415 149.675,253.502 149.426,252.459C146.666,240.857 135.931,211.917 135.931,211.917C135.931,211.917 132.155,227.81 136.874,240.397C139.298,246.856 146.074,256.409 149.401,260.898Z" style="fill:rgb(245,245,245);fill-rule:nonzero;"/>
        <path d="M147.33,235.49C147.633,236.645 149.25,236.674 149.594,235.53C150.555,232.34 152.553,227.943 156.711,223.693C164.541,215.69 170.478,204.579 173.512,194.648C173.512,194.648 156.806,208.052 151.538,217.09C151.538,217.09 152.059,204.661 150.272,195.679C148.749,188.023 151.985,180.648 151.985,180.648C151.985,180.648 141.399,190.809 142.964,209.426C143.95,221.139 145.969,230.302 147.33,235.49Z" style="fill:rgb(245,245,245);fill-rule:nonzero;"/>
        <path d="M157.91,203.576C161.079,200.671 166.629,195.723 171.98,192.72C179.085,188.734 184.704,175.876 185.943,173.015C185.943,173.015 166.146,189.216 160.757,194.416C160.757,194.416 164.02,179.931 166.108,173.667C168.196,167.403 167.935,165.315 169.762,162.705C169.762,162.705 160.236,171.057 157.625,177.712C155.48,183.182 155.891,195.615 155.599,202.479C155.545,203.723 156.993,204.417 157.91,203.576Z" style="fill:rgb(245,245,245);fill-rule:nonzero;"/>
        <path d="M177.939,174.451C183.507,169.927 192.381,156.703 192.381,156.703C190.182,157.959 181.245,161.053 173.764,168.709C166.282,176.365 164.716,186.804 164.716,186.804C164.716,186.804 172.371,178.975 177.939,174.451Z" style="fill:rgb(245,245,245);fill-rule:nonzero;"/>
        <path d="M304.372,340.794C288.017,337.575 274.01,335.226 257.591,339.497C256.783,339.707 256.027,339.949 255.249,340.178C254.47,339.951 253.715,339.708 252.907,339.497C236.489,335.227 222.482,337.575 206.126,340.794C191.384,343.695 177.269,341.185 177.269,341.185C177.269,341.185 187.509,351.583 210.825,351.583C220.997,351.583 233.78,343.021 241.846,342.565C243.832,342.452 245.794,342.573 247.737,342.79C230.417,349.855 222.422,360.57 222.265,360.777C221.57,361.695 221.75,363.004 222.667,363.697C223.044,363.986 223.487,364.125 223.927,364.125C224.557,364.125 225.182,363.839 225.591,363.302C226.228,362.463 239.022,349.229 255.249,344.339C271.476,349.229 284.271,362.464 284.907,363.302C285.316,363.84 285.941,364.125 286.571,364.125C287.011,364.125 287.454,363.986 287.831,363.697C288.748,363.004 288.928,361.694 288.233,360.777C288.076,360.57 280.081,349.855 262.761,342.79C264.704,342.574 266.666,342.453 268.652,342.565C276.718,343.022 289.502,351.583 299.673,351.583C322.989,351.583 333.229,341.185 333.229,341.185C333.229,341.185 319.114,343.693 304.372,340.794Z" style="fill:rgb(245,245,245);fill-rule:nonzero;"/>
        <path d="M304.894,330.528C324.382,321.654 326.314,295.812 326.314,295.812C326.314,295.812 316.203,303.558 310.462,312.954C306.289,319.783 299.081,327.808 295.456,331.682C294.524,332.678 295.082,334.306 296.429,334.524L311.505,336.965C342.651,340.097 352.296,315.405 352.296,315.405C352.296,315.405 348.914,319.044 336.561,322.349C324.207,325.656 304.894,330.528 304.894,330.528Z" style="fill:rgb(245,245,245);fill-rule:nonzero;"/>
        <path d="M355.353,292.596C345.435,299.904 328.815,315.847 328.815,315.847C340.557,304.646 340.567,271.578 340.567,271.578C331.697,285.185 326.991,301.645 326.469,308.083C325.947,314.521 323.337,321.307 323.337,321.307C323.337,321.307 343.607,316.348 352.743,309.301C366.256,298.877 368.751,277.982 368.751,277.982C368.751,277.982 364.639,285.755 355.353,292.596Z" style="fill:rgb(245,245,245);fill-rule:nonzero;"/>
        <path d="M349.438,284.854C355.245,265.851 347.815,243.037 347.815,243.037C341.668,255.769 343.174,273.284 344.392,278.677C345.156,282.057 345.372,287.417 345.427,290.95C345.449,292.35 347.099,293.073 348.158,292.157L358.312,283.375C374.842,269.629 374.683,246.852 374.683,246.852C374.683,246.852 372.754,253.622 367.882,259.364C358.56,270.347 349.438,284.854 349.438,284.854Z" style="fill:rgb(245,245,245);fill-rule:nonzero;"/>
        <path d="M360.426,255.27C357.511,236.115 347.455,218.878 347.455,218.878C347.455,218.878 344.566,232.394 350.83,243.878C354.269,250.184 356.86,256.807 358.196,260.49C358.651,261.746 360.302,261.972 361.098,260.899C364.426,256.41 371.201,246.858 373.624,240.397C378.343,227.81 374.567,211.917 374.567,211.917C374.567,211.917 363.832,240.857 361.072,252.459C360.823,253.503 360.616,254.414 360.426,255.27Z" style="fill:rgb(245,245,245);fill-rule:nonzero;"/>
        <path d="M360.225,195.678C358.439,204.66 358.959,217.089 358.959,217.089C353.692,208.051 336.985,194.647 336.985,194.647C340.019,204.577 345.957,215.688 353.786,223.692C357.944,227.942 359.942,232.339 360.903,235.529C361.247,236.672 362.864,236.643 363.167,235.489C364.529,230.303 366.547,221.138 367.532,209.424C369.098,190.807 358.511,180.646 358.511,180.646C358.511,180.646 361.748,188.023 360.225,195.678Z" style="fill:rgb(245,245,245);fill-rule:nonzero;"/>
        <path d="M349.742,194.417C344.353,189.215 324.556,173.016 324.556,173.016C325.796,175.877 331.414,188.736 338.519,192.721C343.87,195.722 349.42,200.671 352.589,203.577C353.505,204.417 354.954,203.724 354.9,202.481C354.608,195.618 355.019,183.184 352.874,177.714C350.264,171.059 340.737,162.707 340.737,162.707C342.564,165.317 342.303,167.405 344.391,173.669C346.479,179.932 349.742,194.417 349.742,194.417Z" style="fill:rgb(245,245,245);fill-rule:nonzero;"/>
        <path d="M332.559,174.451C338.127,178.974 345.783,186.804 345.783,186.804C345.783,186.804 344.217,176.364 336.735,168.709C329.254,161.053 320.316,157.959 318.118,156.703C318.118,156.703 326.991,169.927 332.559,174.451Z" style="fill:rgb(245,245,245);fill-rule:nonzero;"/>
        <path d="M298.444,217.49L294.895,219.827L298.681,220.419L302.818,224.994L305.135,223.503L302.356,217.82L298.444,217.49Z" style="fill:rgb(245,245,245);fill-rule:nonzero;"/>
        <path d="M304.047,236.979L305.361,237.482L308.689,228.544L307.775,227.303L306.339,228.021L304.056,236.113L304.047,236.979Z" style="fill:rgb(245,245,245);fill-rule:nonzero;"/>
        <path d="M270.648,221.822L269.604,220.714L267.255,223.714L267.839,224.622L270.648,221.822Z" style="fill:rgb(245,245,245);fill-rule:nonzero;"/>
        <path d="M294.692,214.841L295.327,212.799L293.226,213.225L292.632,213.393L292.009,214.227L294.28,216.861L295.2,216.078L294.692,214.841Z" style="fill:rgb(245,245,245);fill-rule:nonzero;"/>
        <path d="M252.509,262.669L252.542,261.398L250.943,263.713L251.4,264.495L252.509,262.669Z" style="fill:rgb(245,245,245);fill-rule:nonzero;"/>
    </g>
</svg>
